%TF.GenerationSoftware,KiCad,Pcbnew,9.0.0*%
%TF.CreationDate,2025-04-24T09:50:19-04:00*%
%TF.ProjectId,Deployment-Switch-Adaptor,4465706c-6f79-46d6-956e-742d53776974,rev?*%
%TF.SameCoordinates,Original*%
%TF.FileFunction,Legend,Top*%
%TF.FilePolarity,Positive*%
%FSLAX46Y46*%
G04 Gerber Fmt 4.6, Leading zero omitted, Abs format (unit mm)*
G04 Created by KiCad (PCBNEW 9.0.0) date 2025-04-24 09:50:19*
%MOMM*%
%LPD*%
G01*
G04 APERTURE LIST*
G04 Aperture macros list*
%AMRoundRect*
0 Rectangle with rounded corners*
0 $1 Rounding radius*
0 $2 $3 $4 $5 $6 $7 $8 $9 X,Y pos of 4 corners*
0 Add a 4 corners polygon primitive as box body*
4,1,4,$2,$3,$4,$5,$6,$7,$8,$9,$2,$3,0*
0 Add four circle primitives for the rounded corners*
1,1,$1+$1,$2,$3*
1,1,$1+$1,$4,$5*
1,1,$1+$1,$6,$7*
1,1,$1+$1,$8,$9*
0 Add four rect primitives between the rounded corners*
20,1,$1+$1,$2,$3,$4,$5,0*
20,1,$1+$1,$4,$5,$6,$7,0*
20,1,$1+$1,$6,$7,$8,$9,0*
20,1,$1+$1,$8,$9,$2,$3,0*%
G04 Aperture macros list end*
%ADD10C,0.100000*%
%ADD11C,0.150000*%
%ADD12C,0.120000*%
%ADD13C,1.905000*%
%ADD14RoundRect,0.250000X-0.575000X0.350000X-0.575000X-0.350000X0.575000X-0.350000X0.575000X0.350000X0*%
%ADD15O,1.650000X1.200000*%
G04 APERTURE END LIST*
D10*
X157128570Y-91384657D02*
X157128570Y-90484657D01*
X157128570Y-90484657D02*
X157342856Y-90484657D01*
X157342856Y-90484657D02*
X157471427Y-90527514D01*
X157471427Y-90527514D02*
X157557142Y-90613228D01*
X157557142Y-90613228D02*
X157599999Y-90698942D01*
X157599999Y-90698942D02*
X157642856Y-90870371D01*
X157642856Y-90870371D02*
X157642856Y-90998942D01*
X157642856Y-90998942D02*
X157599999Y-91170371D01*
X157599999Y-91170371D02*
X157557142Y-91256085D01*
X157557142Y-91256085D02*
X157471427Y-91341800D01*
X157471427Y-91341800D02*
X157342856Y-91384657D01*
X157342856Y-91384657D02*
X157128570Y-91384657D01*
X157985713Y-90570371D02*
X158028570Y-90527514D01*
X158028570Y-90527514D02*
X158114285Y-90484657D01*
X158114285Y-90484657D02*
X158328570Y-90484657D01*
X158328570Y-90484657D02*
X158414285Y-90527514D01*
X158414285Y-90527514D02*
X158457142Y-90570371D01*
X158457142Y-90570371D02*
X158499999Y-90656085D01*
X158499999Y-90656085D02*
X158499999Y-90741800D01*
X158499999Y-90741800D02*
X158457142Y-90870371D01*
X158457142Y-90870371D02*
X157942856Y-91384657D01*
X157942856Y-91384657D02*
X158499999Y-91384657D01*
X159185713Y-90913228D02*
X158885713Y-90913228D01*
X158885713Y-91384657D02*
X158885713Y-90484657D01*
X158885713Y-90484657D02*
X159314285Y-90484657D01*
X159657142Y-91041800D02*
X160342857Y-91041800D01*
X161200000Y-90484657D02*
X160771428Y-90484657D01*
X160771428Y-90484657D02*
X160728571Y-90913228D01*
X160728571Y-90913228D02*
X160771428Y-90870371D01*
X160771428Y-90870371D02*
X160857143Y-90827514D01*
X160857143Y-90827514D02*
X161071428Y-90827514D01*
X161071428Y-90827514D02*
X161157143Y-90870371D01*
X161157143Y-90870371D02*
X161200000Y-90913228D01*
X161200000Y-90913228D02*
X161242857Y-90998942D01*
X161242857Y-90998942D02*
X161242857Y-91213228D01*
X161242857Y-91213228D02*
X161200000Y-91298942D01*
X161200000Y-91298942D02*
X161157143Y-91341800D01*
X161157143Y-91341800D02*
X161071428Y-91384657D01*
X161071428Y-91384657D02*
X160857143Y-91384657D01*
X160857143Y-91384657D02*
X160771428Y-91341800D01*
X160771428Y-91341800D02*
X160728571Y-91298942D01*
X162057143Y-91384657D02*
X161628571Y-91384657D01*
X161628571Y-91384657D02*
X161628571Y-90484657D01*
X162271428Y-90484657D02*
X162828571Y-90484657D01*
X162828571Y-90484657D02*
X162528571Y-90827514D01*
X162528571Y-90827514D02*
X162657142Y-90827514D01*
X162657142Y-90827514D02*
X162742857Y-90870371D01*
X162742857Y-90870371D02*
X162785714Y-90913228D01*
X162785714Y-90913228D02*
X162828571Y-90998942D01*
X162828571Y-90998942D02*
X162828571Y-91213228D01*
X162828571Y-91213228D02*
X162785714Y-91298942D01*
X162785714Y-91298942D02*
X162742857Y-91341800D01*
X162742857Y-91341800D02*
X162657142Y-91384657D01*
X162657142Y-91384657D02*
X162399999Y-91384657D01*
X162399999Y-91384657D02*
X162314285Y-91341800D01*
X162314285Y-91341800D02*
X162271428Y-91298942D01*
X163771428Y-90784657D02*
X164114285Y-90784657D01*
X163899999Y-90484657D02*
X163899999Y-91256085D01*
X163899999Y-91256085D02*
X163942856Y-91341800D01*
X163942856Y-91341800D02*
X164028571Y-91384657D01*
X164028571Y-91384657D02*
X164114285Y-91384657D01*
X164542857Y-91384657D02*
X164457142Y-91341800D01*
X164457142Y-91341800D02*
X164414285Y-91298942D01*
X164414285Y-91298942D02*
X164371428Y-91213228D01*
X164371428Y-91213228D02*
X164371428Y-90956085D01*
X164371428Y-90956085D02*
X164414285Y-90870371D01*
X164414285Y-90870371D02*
X164457142Y-90827514D01*
X164457142Y-90827514D02*
X164542857Y-90784657D01*
X164542857Y-90784657D02*
X164671428Y-90784657D01*
X164671428Y-90784657D02*
X164757142Y-90827514D01*
X164757142Y-90827514D02*
X164800000Y-90870371D01*
X164800000Y-90870371D02*
X164842857Y-90956085D01*
X164842857Y-90956085D02*
X164842857Y-91213228D01*
X164842857Y-91213228D02*
X164800000Y-91298942D01*
X164800000Y-91298942D02*
X164757142Y-91341800D01*
X164757142Y-91341800D02*
X164671428Y-91384657D01*
X164671428Y-91384657D02*
X164542857Y-91384657D01*
X165914285Y-91384657D02*
X165914285Y-90484657D01*
X165914285Y-90484657D02*
X166128571Y-90484657D01*
X166128571Y-90484657D02*
X166257142Y-90527514D01*
X166257142Y-90527514D02*
X166342857Y-90613228D01*
X166342857Y-90613228D02*
X166385714Y-90698942D01*
X166385714Y-90698942D02*
X166428571Y-90870371D01*
X166428571Y-90870371D02*
X166428571Y-90998942D01*
X166428571Y-90998942D02*
X166385714Y-91170371D01*
X166385714Y-91170371D02*
X166342857Y-91256085D01*
X166342857Y-91256085D02*
X166257142Y-91341800D01*
X166257142Y-91341800D02*
X166128571Y-91384657D01*
X166128571Y-91384657D02*
X165914285Y-91384657D01*
X167114285Y-90913228D02*
X166814285Y-90913228D01*
X166814285Y-91384657D02*
X166814285Y-90484657D01*
X166814285Y-90484657D02*
X167242857Y-90484657D01*
X168057143Y-91384657D02*
X167542857Y-91384657D01*
X167800000Y-91384657D02*
X167800000Y-90484657D01*
X167800000Y-90484657D02*
X167714286Y-90613228D01*
X167714286Y-90613228D02*
X167628571Y-90698942D01*
X167628571Y-90698942D02*
X167542857Y-90741800D01*
X168914286Y-91384657D02*
X168400000Y-91384657D01*
X168657143Y-91384657D02*
X168657143Y-90484657D01*
X168657143Y-90484657D02*
X168571429Y-90613228D01*
X168571429Y-90613228D02*
X168485714Y-90698942D01*
X168485714Y-90698942D02*
X168400000Y-90741800D01*
D11*
X166154819Y-84733333D02*
X166869104Y-84733333D01*
X166869104Y-84733333D02*
X167011961Y-84780952D01*
X167011961Y-84780952D02*
X167107200Y-84876190D01*
X167107200Y-84876190D02*
X167154819Y-85019047D01*
X167154819Y-85019047D02*
X167154819Y-85114285D01*
X167154819Y-83733333D02*
X167154819Y-84304761D01*
X167154819Y-84019047D02*
X166154819Y-84019047D01*
X166154819Y-84019047D02*
X166297676Y-84114285D01*
X166297676Y-84114285D02*
X166392914Y-84209523D01*
X166392914Y-84209523D02*
X166440533Y-84304761D01*
D12*
%TO.C,J1*%
X165910000Y-80990000D02*
X165910000Y-82900001D01*
X164000000Y-80990000D02*
X165910000Y-80990000D01*
X165600000Y-81300000D02*
X160400000Y-81300000D01*
X163000000Y-81300000D02*
X163000000Y-81700000D01*
X162000000Y-81300000D02*
X162000000Y-81700000D01*
X160400000Y-81300000D02*
X160400000Y-87500000D01*
X165200001Y-81700000D02*
X165200001Y-83900000D01*
X163000000Y-81700000D02*
X165200001Y-81700000D01*
X162000000Y-81700000D02*
X160800000Y-81700000D01*
X160800000Y-81700000D02*
X160800000Y-87100000D01*
X165200001Y-83900000D02*
X165600000Y-83900000D01*
X165200000Y-84900000D02*
X165600000Y-84900000D01*
X165200000Y-87100000D02*
X165200000Y-84900000D01*
X163000000Y-87100000D02*
X165200000Y-87100000D01*
X162000000Y-87100001D02*
X162000000Y-87500000D01*
X160800000Y-87100000D02*
X162000000Y-87100001D01*
X165600000Y-87500000D02*
X165600000Y-81300000D01*
X163000000Y-87500000D02*
X163000000Y-87100000D01*
X160400000Y-87500000D02*
X165600000Y-87500000D01*
%TD*%
%LPC*%
D13*
%TO.C,J2*%
X168080000Y-89000000D03*
X163000000Y-89000000D03*
X157920000Y-89000000D03*
%TD*%
D14*
%TO.C,J1*%
X164000000Y-83400000D03*
D15*
X161999999Y-83400000D03*
X164000000Y-85400001D03*
X162000000Y-85400000D03*
%TD*%
%LPD*%
M02*
